# Blender v2.70 (sub 0) OBJ File: ''
# www.blender.org
o Icosphere_Icosphere.001
v 0.059555 -1.030847 -0.065504
v 0.829267 -0.400862 0.373244
v -0.341707 -0.444281 0.736785
v -0.882104 -0.515632 -0.068672
v -0.230790 -0.508863 -0.916957
v 0.664330 -0.408876 -0.621703
v 0.379737 0.445544 0.775930
v -0.680283 0.448832 0.440701
v -0.695369 0.469689 -0.508470
v 0.255998 0.435232 -0.831579
v 0.849229 0.492929 0.047936
v 0.258381 1.041131 0.077880
v -0.183378 -0.846458 0.461302
v 0.477535 -0.819217 0.199276
v 0.291091 -0.391694 0.714171
v 0.870701 -0.491501 -0.129024
v 0.453535 -0.885758 -0.424485
v -0.459736 -0.923604 -0.100237
v -0.780184 -0.611486 0.401671
v -0.105576 -0.894717 -0.572066
v -0.616790 -0.589211 -0.583801
v 0.282558 -0.551851 -0.897502
v 0.978651 0.024171 0.243928
v 0.828921 0.143534 -0.273408
v 0.078898 0.076791 0.890363
v 0.653573 0.044923 0.713057
v -1.019469 -0.002897 0.228210
v -0.660850 -0.079420 0.676590
v -0.549766 -0.052723 -0.863422
v -0.973709 0.000135 -0.348334
v 0.523395 0.033673 -0.829306
v 0.063438 -0.070698 -1.081363
v 0.709434 0.441084 0.471354
v -0.080293 0.537321 0.713639
v -0.864196 0.570954 0.000456
v -0.185640 0.499166 -0.796476
v 0.589869 0.611598 -0.395894
v 0.341391 0.823309 0.478480
v 0.583501 0.852592 0.034736
v -0.160770 0.861436 0.385171
v -0.176359 0.882160 -0.170861
v 0.246247 0.892769 -0.397969
vn 0.196807 -0.893557 0.403514
vn 0.714444 -0.675900 0.180910
vn -0.211629 -0.948800 0.234502
vn -0.185508 -0.962453 -0.198170
vn 0.090762 -0.953939 -0.285942
vn 0.947091 -0.293011 0.131006
vn 0.060883 -0.327088 0.943031
vn -0.934611 -0.328848 0.135507
vn -0.580643 -0.318080 -0.749453
vn 0.617331 -0.164312 -0.769353
vn 0.814336 -0.113006 0.569286
vn -0.262990 -0.071298 0.962160
vn -0.973378 -0.215386 -0.078388
vn -0.335514 -0.125039 -0.933700
vn 0.871272 0.048349 -0.488413
vn 0.574366 0.541612 0.613808
vn -0.402849 0.600225 0.690972
vn -0.455343 0.832113 -0.316624
vn 0.041956 0.687739 -0.724745
vn 0.772092 0.559373 -0.301623
vn 0.075030 -0.543251 0.836211
vn 0.294201 -0.680248 0.671348
vn 0.411184 -0.622579 0.665825
vn 0.763003 -0.504429 -0.404200
vn 0.665477 -0.744476 0.053813
vn 0.408782 -0.909009 0.081242
vn -0.694587 -0.719398 0.003903
vn -0.375122 -0.875403 0.304881
vn -0.315168 -0.617639 0.720549
vn -0.392454 -0.680477 -0.618815
vn -0.464128 -0.791887 -0.396863
vn -0.681835 -0.686308 -0.253146
vn 0.619864 -0.517829 -0.589595
vn 0.173151 -0.774046 -0.608992
vn -0.028137 -0.671219 -0.740725
vn 0.957005 0.164262 -0.239082
vn 0.960576 -0.000013 -0.278018
vn 0.920293 -0.028172 -0.390213
vn 0.297103 0.053461 0.953348
vn 0.275669 -0.226479 0.934191
vn 0.485357 -0.400965 0.776953
vn -0.733603 0.254410 0.630161
vn -0.784870 -0.136304 0.604484
vn -0.501911 -0.305524 0.809161
vn -0.741203 0.223496 -0.632983
vn -0.764086 -0.220525 -0.606252
vn -0.849302 -0.360138 -0.385987
vn 0.414532 0.271119 -0.868710
vn 0.495960 -0.103583 -0.862145
vn 0.005734 -0.354666 -0.934976
vn 0.642752 0.330907 0.690919
vn 0.806145 0.221176 0.548827
vn 0.864620 0.377393 0.331672
vn -0.429984 0.354888 0.830162
vn -0.316264 0.242616 0.917123
vn -0.059333 0.339694 0.938663
vn -0.851541 0.382481 -0.358589
vn -0.969687 0.232317 -0.075741
vn -0.803964 0.394237 0.445218
vn -0.006800 0.444767 -0.895621
vn -0.309859 0.313329 -0.897670
vn -0.467609 0.403896 -0.786263
vn 0.851301 0.327514 -0.409904
vn 0.815326 0.284433 -0.504322
vn 0.631977 0.417134 -0.653149
vn 0.506046 0.797407 0.328724
vn 0.662905 0.630790 0.403312
vn 0.756459 0.570624 0.319622
vn -0.022884 0.876300 0.481223
vn -0.078771 0.699879 0.709904
vn 0.017363 0.619632 0.784700
vn -0.365643 0.929671 0.044903
vn -0.402390 0.914344 0.045362
vn -0.534390 0.730160 0.425786
vn -0.178758 0.940583 -0.288702
vn -0.287612 0.818730 -0.496951
vn -0.323909 0.809025 -0.490471
vn 0.454585 0.846972 -0.275665
vn 0.584641 0.711623 -0.389599
vn 0.496800 0.602536 -0.624612
s off
f 1//1 14//1 13//1
f 2//2 14//2 16//2
f 1//3 13//3 18//3
f 1//4 18//4 20//4
f 1//5 20//5 17//5
f 2//6 16//6 23//6
f 3//7 15//7 25//7
f 4//8 19//8 27//8
f 5//9 21//9 29//9
f 6//10 22//10 31//10
f 2//11 23//11 26//11
f 3//12 25//12 28//12
f 4//13 27//13 30//13
f 5//14 29//14 32//14
f 6//15 31//15 24//15
f 7//16 33//16 38//16
f 8//17 34//17 40//17
f 9//18 35//18 41//18
f 10//19 36//19 42//19
f 11//20 37//20 39//20
f 13//21 15//21 3//21
f 13//22 14//22 15//22
f 14//23 2//23 15//23
f 16//24 17//24 6//24
f 16//25 14//25 17//25
f 14//26 1//26 17//26
f 18//27 19//27 4//27
f 18//28 13//28 19//28
f 13//29 3//29 19//29
f 20//30 21//30 5//30
f 20//31 18//31 21//31
f 18//32 4//32 21//32
f 17//33 22//33 6//33
f 17//34 20//34 22//34
f 20//35 5//35 22//35
f 23//36 24//36 11//36
f 23//37 16//37 24//37
f 16//38 6//38 24//38
f 25//39 26//39 7//39
f 25//40 15//40 26//40
f 15//41 2//41 26//41
f 27//42 28//42 8//42
f 27//43 19//43 28//43
f 19//44 3//44 28//44
f 29//45 30//45 9//45
f 29//46 21//46 30//46
f 21//47 4//47 30//47
f 31//48 32//48 10//48
f 31//49 22//49 32//49
f 22//50 5//50 32//50
f 26//51 33//51 7//51
f 26//52 23//52 33//52
f 23//53 11//53 33//53
f 28//54 34//54 8//54
f 28//55 25//55 34//55
f 25//56 7//56 34//56
f 30//57 35//57 9//57
f 30//58 27//58 35//58
f 27//59 8//59 35//59
f 32//60 36//60 10//60
f 32//61 29//61 36//61
f 29//62 9//62 36//62
f 24//63 37//63 11//63
f 24//64 31//64 37//64
f 31//65 10//65 37//65
f 38//66 39//66 12//66
f 38//67 33//67 39//67
f 33//68 11//68 39//68
f 40//69 38//69 12//69
f 40//70 34//70 38//70
f 34//71 7//71 38//71
f 41//72 40//72 12//72
f 41//73 35//73 40//73
f 35//74 8//74 40//74
f 42//75 41//75 12//75
f 42//76 36//76 41//76
f 36//77 9//77 41//77
f 39//78 42//78 12//78
f 39//79 37//79 42//79
f 37//80 10//80 42//80
